<?xml version="1.0" encoding="utf-8"?>
<!-- Generator: Adobe Illustrator 16.0.0, SVG Export Plug-In . SVG Version: 6.00 Build 0)  -->
<!DOCTYPE svg PUBLIC "-//W3C//DTD SVG 1.1//EN" "http://www.w3.org/Graphics/SVG/1.1/DTD/svg11.dtd">
<svg version="1.1" id="Camada_1" xmlns="http://www.w3.org/2000/svg" xmlns:xlink="http://www.w3.org/1999/xlink" x="0px" y="0px"
	 width="640px" height="480px" viewBox="0 0 640 480" enable-background="new 0 0 640 480" xml:space="preserve">
<radialGradient id="SVGID_1_" cx="319.7627" cy="237.2764" r="460.221" gradientUnits="userSpaceOnUse">
	<stop  offset="0" style="stop-color:#00BF11"/>
	<stop  offset="1" style="stop-color:#2300BF"/>
</radialGradient>
<ellipse fill="url(#SVGID_1_)" stroke="#000000" stroke-miterlimit="10" cx="319.762" cy="237.276" rx="284.531" ry="145.856"/>
<g>
	<g>
		<path fill="#FF0000" d="M235.916,149.112c-3.012-10.972-6.087-21.916-8.469-33.048c-0.167,0.036-0.25,0.055-0.417,0.091
			c-1.373,10.641-3.016,21.239-4.646,31.843c-2.072,13.57-3.688,27.211-4.829,40.892c-3.078,0.875-4.613,1.328-7.677,2.268
			c-7.933-10.752-16.223-21.242-24.84-31.455c-6.97-8.315-13.978-16.587-20.516-25.251c-0.107,0.04-0.162,0.061-0.269,0.101
			c3.716,11.047,7.158,22.176,10.58,33.317c3.262,10.832,6.563,21.649,9.904,32.457c-3.779,1.452-5.661,2.203-9.411,3.757
			c-8.25-25.088-16.183-50.264-23.809-75.549c6.063-2.407,9.111-3.557,15.235-5.744c9.502,10.034,18.668,20.385,27.473,31.037
			c5.868,7.27,11.366,14.858,16.207,22.853c0.145-0.042,0.216-0.063,0.361-0.106c-0.166-9.386,0.508-18.779,1.673-28.088
			c1.875-13.788,4.34-27.444,7.019-41.094c6.286-1.439,9.441-2.105,15.762-3.324c6.921,25.464,13.562,50.991,19.929,76.6
			c-4.028,0.723-6.038,1.111-10.051,1.941C242.095,171.433,239.026,160.268,235.916,149.112z"/>
		<path fill="#FF0000" d="M276.397,104.376c0.423,3.419-2.288,6.577-7.175,7.168c-4.329,0.523-7.779-1.83-8.258-5.311
			c-0.494-3.598,2.421-6.846,7.015-7.398C272.717,98.265,275.96,100.846,276.397,104.376z M272.163,178.006
			c-2.505-18.731-5.017-37.461-7.527-56.191c4.807-0.644,7.212-0.934,12.029-1.447c1.998,18.792,3.998,37.584,5.993,56.376
			C278.455,177.191,276.355,177.443,272.163,178.006z"/>
		<path fill="#FF0000" d="M297.609,134.011c-0.356-5.847-0.78-10.631-1.482-15.282c4.283-0.266,6.426-0.374,10.713-0.537
			c0.417,3.735,0.622,5.602,1.027,9.338c0.107-0.004,0.162-0.006,0.27-0.01c3.036-5.5,10.684-11.006,21.676-10.892
			c13.851,0.144,23.393,11.161,21.948,25.024c-0.751,11.259-1.503,22.518-2.256,33.776c-4.215-0.282-6.323-0.393-10.542-0.56
			c0.431-10.885,0.861-21.771,1.29-32.656c0.36-9.129-3.259-17.018-14.481-17.072c-7.843-0.038-13.714,5.167-15.62,10.751
			c-0.437,1.28-0.689,3.07-0.63,4.826c0.381,11.355,0.762,22.711,1.142,34.066c-4.22,0.142-6.329,0.242-10.545,0.499
			C299.284,161.526,298.446,147.769,297.609,134.011z"/>
		<path fill="#FF0000" d="M375.806,94.295c5.103,0.569,7.652,0.887,12.742,1.595c-1.624,11.681-3.247,23.361-4.871,35.042
			c0.107,0.015,0.16,0.022,0.268,0.037c2.278-2.639,5.659-4.741,9.563-5.912c3.785-1.136,8.246-1.592,12.729-0.757
			c13.632,2.542,20.917,15.166,17.157,28.502c-2.662,10.926-5.324,21.852-7.984,32.778c-4.13-1.006-6.2-1.48-10.35-2.371
			c2.279-10.613,4.559-21.227,6.838-31.84c1.918-8.933-0.295-17.446-11.385-19.426c-7.616-1.36-14.277,2.738-17.244,7.686
			c-0.767,1.279-1.189,2.788-1.464,4.76c-1.568,11.293-3.143,22.584-4.714,33.877c-4.19-0.583-6.289-0.846-10.491-1.314
			C369.672,149.399,372.742,121.848,375.806,94.295z"/>
		<path fill="#FF0000" d="M462.953,200.459c0.708-2.791,1.062-4.187,1.758-6.981c-0.139-0.053-0.209-0.08-0.348-0.133
			c-4.718,2.965-11.984,4.487-19.916,1.876c-11.266-3.708-14.948-13.004-12.736-20.882c5.134-18.282,29.386-13.456,42.34-8.269
			c0.166-0.438,0.247-0.659,0.413-1.097c1.663-4.381,3.296-13.005-9.571-17.388c-5.85-1.992-12.507-2.36-17.659-1.202
			c-0.266-2.914-0.408-4.373-0.708-7.29c6.136-1.39,14.614-0.644,22.537,1.873c13.673,4.344,21.354,16.983,15.291,30.562
			c-3.226,7.844-4.841,11.765-8.066,19.609c-1.871,4.551-3.463,9.091-4.265,12.943C468.408,202.586,466.595,201.861,462.953,200.459
			z M471.76,172.845c-8.512-3.739-25.048-8.088-29.08,3.495c-2.116,6.079,1.577,10.772,6.842,12.547
			c7.371,2.485,13.647-0.142,16.98-4.003c0.729-0.845,1.385-1.854,1.76-2.839C469.661,178.366,470.36,176.524,471.76,172.845z"/>
	</g>
</g>
<g>
	<g>
		<path fill="#FFFF00" d="M182,289.272c3,0.001,3.853,0.003,6.45,0.004c-0.052,15.519-0.129,31.037-0.184,46.556
			c8.398,2.223,12.612,3.246,21.102,5.115c-0.026,2.51,0,3.764-0.027,6.273c-9.203-2.271-18.341-4.832-27.341-7.664
			C182,322.795,182,306.034,182,289.272z"/>
		<path fill="#FFFF00" d="M248.047,331.047c-0.938,9.564-4.578,24.85-18.283,21.775c-11.145-2.5-16.904-14.813-16.928-25.537
			c-0.023-10.401,6.594-22.01,18.124-21.361C243.217,306.612,249.047,320.855,248.047,331.047z M219.436,328.003
			c-0.114,9.478,4.31,17.581,10.704,18.753c6.245,1.145,11.046-5.689,11.179-16.139c0.1-7.861-2.836-18.009-10.586-18.57
			C222.981,311.485,219.535,319.776,219.436,328.003z"/>
		<path fill="#FFFF00" d="M287.829,309.153c-0.176,3.654-0.354,7.723-0.399,13.884c-0.07,9.783-0.141,19.566-0.212,29.35
			c-0.083,11.594-1.894,18.584-5.392,22.559c-3.6,4.091-8.754,4.956-13.357,4.263c-4.376-0.659-9.177-2.906-12.077-6.01
			c0.692-2.55,1.038-3.834,1.73-6.405c2.381,2.377,6.122,4.795,10.646,5.421c6.786,0.939,11.823-3.416,11.929-16.062
			c0.019-2.238,0.027-3.361,0.045-5.6c-0.061-0.005-0.089-0.007-0.15-0.012c-2.074,4.501-6.279,8.04-11.677,7.208
			c-10.921-1.683-15.217-15.532-15.196-25.355c0.021-9.857,4.94-24.766,16.603-24.832c6.061-0.034,9.689,4.814,11.229,9.018
			c0.06,0.002,0.09,0.004,0.15,0.006c0.145-3.024,0.217-4.537,0.361-7.564C284.369,309.078,285.522,309.104,287.829,309.153z
			 M280.851,328.788c0.013-1.555-0.063-2.913-0.343-4.165c-1.184-5.295-4.341-9.78-9.134-9.977
			c-6.291-0.258-10.858,6.629-10.984,17.855c-0.107,9.522,3.403,17.91,10.55,18.62c4.063,0.403,7.798-2.793,9.264-8.485
			c0.392-1.522,0.556-3.28,0.569-4.834C280.804,334.196,280.82,332.395,280.851,328.788z"/>
		<path fill="#FFFF00" d="M331.334,334.848c0.073,10.829-4.919,27.618-18.22,27.29c-12.753-0.314-17.454-16.353-17.419-26.932
			c0.035-10.802,4.943-26.928,18.135-26.866C326.757,308.4,331.264,324.357,331.334,334.848z M302.399,335.115
			c-0.049,11.213,4.526,19.884,11.034,20.012c6.356,0.125,11.121-8.313,11.119-19.919c-0.002-8.732-3.081-19.788-10.885-19.849
			C305.861,315.299,302.442,325.382,302.399,335.115z"/>
		<path fill="#FFFF00" d="M346.373,297.126c-6.13,0.033-9.195,0.046-15.325,0.057c-0.005-3.15-0.008-4.728-0.013-7.878
			c12.415,0,24.831,0.002,37.246-0.002c0.026,3.061,0.041,4.59,0.067,7.649c-6.157,0.065-9.236,0.092-15.396,0.135
			c0.125,21.027,0.249,42.054,0.376,63.081c-2.662,0.165-3.993,0.237-6.657,0.365C346.568,339.397,346.472,318.262,346.373,297.126z
			"/>
		<path fill="#FFFF00" d="M380.132,294.778c0.068,3.007-1.514,5.512-4.131,5.559c-2.316,0.042-3.986-2.398-4.015-5.483
			c-0.029-3.188,1.667-5.654,4.056-5.654C378.506,289.199,380.062,291.671,380.132,294.778z M373.41,358.502
			c-0.156-16.563-0.313-33.128-0.47-49.691c2.634-0.078,3.952-0.119,6.585-0.208c0.163,16.387,0.343,32.774,0.511,49.161
			C377.388,358.077,376.063,358.226,373.41,358.502z"/>
		<path fill="#FFFF00" d="M390.627,323.914c-0.072-6.166-0.281-11.13-0.484-15.702c2.362-0.095,3.544-0.145,5.905-0.248
			c0.159,3.257,0.239,4.883,0.398,8.135c0.06-0.004,0.09-0.005,0.149-0.009c2.62-5.959,6.969-9.662,12.729-9.807
			c10.744-0.27,15.478,12.368,15.556,21.421c0.091,10.534-4.646,24.382-16.059,26.806c-4.616,0.98-8.995-1.14-11.224-5.535
			c-0.06,0.009-0.092,0.011-0.151,0.02c0.126,10.311,0.189,15.465,0.315,25.777c-2.607,0.526-3.913,0.78-6.527,1.26
			C391.032,358.659,390.829,341.286,390.627,323.914z M397.291,336.056c0.016,1.274,0.149,2.471,0.339,3.492
			c1.056,5.686,5.288,9.346,9.987,8.579c6.938-1.132,10.856-8.935,10.726-19.191c-0.114-8.964-4.011-16.333-10.95-15.873
			c-4.478,0.297-8.578,4.767-9.8,11.291c-0.204,1.091-0.419,2.39-0.404,3.566C397.229,331.174,397.251,332.802,397.291,336.056z"/>
		<path fill="#FFFF00" d="M465.383,321.205c0.002,10.981-7.001,21.155-17.539,24.374c-11.239,3.433-17.311-8.342-17.314-17.696
			c-0.004-10.549,5.545-23.033,17.575-23.932C458.39,303.184,465.381,310.166,465.383,321.205z M437.117,326.611
			c0.098,9.137,4.673,15.038,10.977,13.471c6.157-1.531,10.722-8.924,10.691-17.377c-0.022-6.36-3.08-14.083-10.787-13.33
			C440.29,310.128,437.032,318.681,437.117,326.611z"/>
	</g>
</g>
</svg>
